<svg version="1.0" xmlns="http://www.w3.org/2000/svg" width="100%" height="100%" viewBox="0 0 1024.000000 237.000000" preserveAspectRatio="xMidYMid meet">
<style>
/***************************************************
 * Generated by SVG Artista on 8/9/2023, 4:37:57 AM
 * MIT license (https://opensource.org/licenses/MIT)
 * W. https://svgartista.net
 **************************************************/



body {
  margin: 0;
  background-color: transparent;
}

svg {
  width: 100%;
  display: block;
}
</style>
<g transform="translate(0.000000,237.000000) scale(0.100000,-0.100000)" fill="#CC5C71" stroke="#432739">
<path d="M4060 1794 c-85 -24 -403 -176 -450 -215 -14 -11 -1 -7 30 11 204
115 398 192 516 206 115 12 128 -22 70 -186 -57 -164 -157 -390 -176 -400 -14
-8 -28 -5 -54 11 -62 36 -124 9 -80 -35 11 -12 30 -16 57 -14 29 2 43 -2 51
-14 6 -9 8 -19 6 -22 -3 -2 -162 -7 -355 -11 -342 -7 -505 1 -527 23 -41 41
89 172 327 334 85 58 129 91 95 73 -91 -50 -312 -219 -383 -294 -43 -44 -57
-67 -57 -89 0 -55 12 -57 465 -58 226 -1 413 -2 417 -3 6 -1 -130 -298 -218
-473 -21 -43 -35 -80 -32 -84 4 -3 55 43 115 104 114 115 186 169 311 233 l77
39 24 -28 c77 -90 100 -112 115 -112 33 0 14 112 -28 158 -17 19 -29 23 -68
21 -46 -3 -48 -2 -112 68 -36 39 -66 74 -66 77 0 3 72 6 160 6 88 0 160 3 160
8 0 4 -78 6 -172 4 l-173 -4 -25 27 -25 27 25 19 c14 11 72 51 130 88 58 38
168 119 245 180 77 61 152 120 168 131 31 24 39 57 10 41 -10 -5 -49 -37 -88
-71 -160 -143 -439 -350 -452 -336 -3 3 27 80 67 172 72 168 130 328 130 358
0 9 -9 25 -20 36 -28 28 -102 26 -210 -6z m-95 -594 c19 -8 19 -9 -2 -9 -12
-1 -25 4 -28 9 -7 12 2 12 30 0z m204 -166 l75 -75 -64 -36 c-111 -61 -182
-114 -278 -207 l-94 -91 25 55 c124 273 191 417 200 428 20 25 61 2 136 -74z
m203 -124 c10 -14 21 -43 24 -65 l5 -40 -55 59 c-31 33 -56 63 -56 68 0 20 63
2 82 -22z" class="svg-elem-1"></path>
<path d="M6309 1752 c-51 -33 -119 -105 -185 -200 -26 -37 -48 -68 -50 -70 -1
-2 -29 2 -63 8 -156 28 -475 -73 -713 -225 -120 -77 -155 -122 -110 -140 9 -4
175 -7 368 -6 l351 2 -24 -98 c-29 -118 -36 -289 -14 -341 66 -156 290 18 467
361 l39 77 53 0 c28 0 52 5 52 10 0 6 -20 10 -45 10 -25 0 -45 2 -45 4 0 2 18
48 39 103 52 130 73 214 69 276 -3 49 -5 52 -29 52 l-27 -1 6 83 c4 71 2 86
-13 103 -26 28 -73 25 -126 -8z m112 -23 c6 -13 9 -52 7 -98 -4 -71 -8 -83
-60 -174 -31 -54 -78 -149 -105 -210 l-48 -112 -5 95 c-6 112 -33 179 -86 213
-19 12 -34 25 -34 29 0 12 117 162 151 195 87 80 157 105 180 62z m63 -193
c11 -45 -33 -212 -93 -348 l-20 -48 -70 0 c-82 0 -81 -14 -9 141 64 135 156
279 179 279 4 0 10 -11 13 -24z m-449 -72 l24 -6 -51 -101 c-28 -56 -61 -129
-73 -162 l-23 -60 -360 0 c-198 0 -364 3 -368 8 -21 21 106 112 275 196 227
114 437 160 576 125z m91 -56 c42 -45 58 -90 62 -179 l4 -86 -53 -6 c-63 -8
-209 -9 -209 -2 0 16 56 149 96 225 50 97 54 99 100 48z m54 -306 c0 -22 -36
-154 -55 -205 -17 -43 -19 -67 -5 -67 5 0 23 46 41 103 17 56 38 121 46 145
l15 42 70 0 70 0 -42 -77 c-126 -233 -277 -393 -372 -393 -79 0 -99 161 -47
382 l21 88 129 0 c117 0 129 -2 129 -18z" class="svg-elem-2"></path>
<path d="M6836 1488 c-14 -21 -246 -590 -246 -602 0 -18 19 -2 24 20 12 45 87
156 102 150 8 -3 33 11 57 31 23 21 44 39 46 40 2 2 1 6 -3 10 -3 4 -24 -11
-46 -32 -22 -22 -40 -36 -40 -32 0 14 29 63 44 76 18 15 21 31 6 31 -6 0 -38
-42 -71 -92 -59 -89 -68 -90 -27 -3 10 22 36 68 58 102 45 71 115 231 125 286
8 43 -6 50 -29 15z m-26 -120 c-29 -69 -76 -160 -67 -128 12 38 90 210 94 206
2 -2 -10 -37 -27 -78z" class="svg-elem-3"></path>
<path d="M4560 1155 c-10 -12 -16 -13 -26 -4 -19 16 -60 -12 -81 -57 -23 -48
-6 -65 36 -35 31 22 31 22 31 2 0 -12 6 -21 14 -21 15 0 91 88 83 96 -3 3 -13
-6 -23 -21 -9 -14 -26 -31 -37 -37 -18 -9 -18 -6 6 35 26 44 23 74 -3 42z
m-30 -29 c0 -13 -49 -56 -64 -56 -10 0 15 44 33 57 21 16 31 16 31 -1z" class="svg-elem-4"></path>
<path d="M4920 1155 c-10 -12 -16 -13 -26 -4 -31 26 -115 -74 -86 -103 9 -9
19 -7 42 10 30 22 30 22 30 2 0 -11 6 -20 14 -20 15 0 86 80 86 96 0 5 -14 -8
-31 -29 -42 -51 -57 -47 -25 7 25 43 22 72 -4 41z m-32 -31 c-3 -19 -55 -61
-63 -52 -7 7 44 68 57 68 5 0 8 -7 6 -16z" class="svg-elem-5"></path>
<path d="M6515 1146 c-36 -29 -28 -45 9 -20 42 27 40 10 -4 -30 -22 -20 -40
-38 -40 -41 0 -3 12 -2 28 1 24 7 26 6 13 -9 -7 -10 -10 -17 -5 -17 12 0 -46
-59 -81 -82 -16 -11 -6 3 24 31 30 28 51 51 45 51 -16 0 -129 -108 -121 -116
19 -20 167 94 167 128 0 9 25 33 55 53 30 21 53 40 50 43 -2 2 -27 -12 -56
-32 -57 -42 -77 -40 -36 2 54 56 14 87 -48 38z" class="svg-elem-6"></path>
<path d="M6890 1117 c-42 -48 -68 -52 -36 -5 9 12 16 29 16 37 0 24 -26 -6
-45 -52 -14 -34 -14 -38 0 -43 8 -4 26 1 40 10 15 10 24 12 23 5 -6 -23 20
-19 53 8 23 20 31 23 26 11 -4 -10 -10 -25 -13 -33 -13 -31 13 -13 44 30 34
48 52 57 52 25 0 -13 7 -20 18 -20 11 0 27 9 37 20 14 16 15 20 4 20 -8 0 -20
-5 -27 -12 -9 -9 -12 -7 -12 9 0 32 -14 35 -45 11 l-28 -22 18 27 c25 39 -4
37 -33 -2 -11 -16 -35 -39 -52 -51 l-32 -23 22 42 c31 62 21 65 -30 8z" class="svg-elem-7"></path>
<path d="M4695 1120 c-21 -22 -41 -38 -43 -35 -2 2 0 18 6 34 16 44 -5 40 -24
-5 -30 -72 -3 -93 50 -38 23 24 36 31 36 22 0 -9 -7 -21 -15 -28 -8 -7 -13
-16 -10 -20 4 -7 -56 -162 -112 -290 l-20 -45 5 77 c4 66 2 82 -17 114 -12 20
-21 37 -19 38 2 1 38 24 81 50 43 27 76 50 74 52 -2 2 -39 -16 -83 -41 -43
-26 -91 -49 -106 -52 -36 -7 -36 -19 0 -26 17 -3 34 -17 42 -33 21 -38 17
-154 -8 -231 -39 -122 -5 -60 92 168 94 220 101 233 142 262 24 17 44 35 44
39 0 5 -16 -3 -36 -19 l-37 -27 8 24 c4 14 10 31 12 38 10 26 -25 10 -62 -28z" class="svg-elem-8"></path>
</g>
</svg>
